<svg version="1.2" xmlns="http://www.w3.org/2000/svg" viewBox="0 0 1920 1080" width="1920" height="1080"><style>.a{fill:#fff}.b{fill:#cce1f4}</style><path class="a" d="m148.1 600.6c43.5 10 81.4 15.4 114 17.7 1.1 17.3 8 34.8 28.6 43.7 12.9 5.5 24.9 8 35.9 8.6 6.3 49.8 32 102.2 112 101.2 64.4-0.8 106.6-23.2 134-48.7 9.9 10.4 21.6 18.6 35.6 22.9 21.2 6.5 39.4 4.9 54.5-0.4 0.3 3.1 0.7 6.2 1.3 9.3 13.9 64.1 62.8 125.6 174.3 99.5 45.2-10.6 71.2-36.7 86.2-64.1 19.8 29 53.9 53.6 111.7 63.6 55.8 9.7 99-8.6 131.6-36.5 5.3 34.7 34.1 62.4 70.6 64.9 31.7 2.2 60.2-15.1 73.8-41.7 125.2 54.1 217.8-52.8 213.6-103.9 15.3 19 67.3 20.2 97.3 6.2 9.1-4.1 17-10.6 23.6-18.3 19.6 9.4 41.2 15.4 64.1 17 96.6 6.7 180.4-66.1 187.1-162.7 1.3-18.8-0.4-37.3-4.8-54.7-17.9-71.7-80.1-126.9-157.9-132.4-27.2-1.9-53.5 2.6-77.3 12.1-16.6-27.3-51.9-67.3-120.7-79.6-7.8-1.5-16.2-2.3-24.8-2.4-17.9-66.7-76.5-117.8-149.3-122.9-76-5.3-143.6 41.4-168.1 109.7-9.9-5.6-21.3-9.7-34.3-11.6-12.7-1.8-23.5-1.1-32.8 1.1-11.1-18.3-28.3-32.8-48.7-39.2-28.4-8.6-60.6-0.7-83.3 18.3-16.2-41.6-55.3-72.3-102.8-75.6-57.1-4-107.6 33-122.8 85.9-50.1-20.7-88.7-1.4-111.2 20.3-28.5 27.5-43.4 84.9-30.8 122.1-36-10-64.9 12.8-58.4 49.7-80.9-47.5-157.8-8.3-199.7 23.4-0.5-0.8-1.2-1.6-1.8-2.4-40.5-34.6-93.4-13.4-101.1 14.3-80.5-32.1-160.2-18.4-242.5 29.4-0.5 0.3-1 0.7-1.4 1-20.5 14.4 48.4 37.6 124.7 55.2z"/><path class="b" d="m148.1 600.6c43.5 10 81.4 15.4 114 17.7 1.1 17.3 8 34.8 28.6 43.7 12.9 5.5 24.9 8 35.9 8.6 6.3 49.8 32 102.2 112 101.2 64.4-0.8 106.6-23.2 134-48.7 9.9 10.4 21.6 18.6 35.6 22.9 21.2 6.5 39.4 4.9 54.5-0.4 0.3 3.1 0.7 6.2 1.3 9.3 13.9 64.1 62.8 125.6 174.3 99.5 45.2-10.6 71.2-36.7 86.2-64.1 19.8 29 53.9 53.6 111.7 63.6 55.8 9.7 99-8.6 131.6-36.5 5.3 34.7 34.1 62.4 70.6 64.9 31.7 2.2 60.2-15.1 73.8-41.7 125.2 54.1 217.8-52.8 213.6-103.9 15.3 19 67.3 20.2 97.3 6.2 9.1-4.1 17-10.6 23.6-18.3 19.6 9.4 41.2 15.4 64.1 17 96.6 6.7 180.4-66.1 187.1-162.7 1.3-18.8-0.4-37.3-4.8-54.7-58.2-14.9-123.3-11.3-163.2 69.3-27.9-54.4-78.7-48.1-92.6-10.6-23.2-37.8-64.6-66.5-121.2-80.8-57.7-14.7-100.8 12.8-129.9 40.1q1.1 0.4 2.3 0.8c102.4 36.4 93.5 137.2 93.5 137.2 0 0-38-100.9-241.7-113.4 0 0 30.7-40.3 98-35-22.7-34.7-59.9-59.7-104.3-65.4-21.7-2.7-42.9-0.4-62.5 5.9-0.4-5.7-1.1-11.3-2.4-17-7.3-34.2-33.7-66.9-68.6-69.9-58.5-4.9-109.6 50.4-103.3 123.3 0 0-67-20-111.2 84.4 0 0 9.8-76.6 58.8-119.6-27.5-25.8-75.5-25.4-93.3-19.2-41.3 14.5-55.1 44.8-57.8 74.6 0 0-35.4-24.7-65.1-10.7-37.3 17.7-26 56.7-26 56.7-52.7-15.1-74.8-24.2-104.1 45.1 53.3-16.7 107.9 2.6 143.3 47.2-52.7-35.5-126.2-37.5-180.7-4.6 6.6-48.8-59.9-88.8-100-60.2-6.4-44-55.5-71.2-99.1-63-35.3 6.8-57.2 38.6-54.3 77.9-25.6-64.5-95.2-48.2-186.8-55.2-30.9-2.3-69.4-1.2-97.5-16.7-20.5 14.4 48.4 37.6 124.7 55.2z"/></svg>