<svg version="1.2" xmlns="http://www.w3.org/2000/svg" viewBox="0 0 1920 1080" width="1920" height="1080"><style>.a{fill:#fff}.b{fill:#cce1f4}</style><path class="a" d="m1872.6 471.4c-18-24.7-46.1-37-72.7-40.7 0.9-4.1 1.4-8.3 1.4-12.7 0-32.7-26.5-59.2-59.2-59.2-13.3 0-25.4 4.4-35.3 11.8-21.5-61.3-73.7-99.5-143.1-99.5-67.4 0-129.2 30.1-146.2 94.8-26.6-21-59-13.8-68.8 17.2 1.7-33-34.8-80.4-98.9-80.4-33 0-76 14.7-88.7 58.9-12.5-28.2-34.6-34.5-60.7-32.1-26.2 2.5-46.6 33.2-46.8 55.2-26.2-15.2-55.3-27.3-85.6-27.3-30.3-0.2-55.4 8.7-76.2 30.8-22.4 23.8-23.1 62.8-11.3 92.9-30-6.8-52.7 13.1-46 43.1-35.8-16.8-57.8-17.3-96.3-8.8-25.6 5.6-49.8 19.6-66.7 39.3-12.2-17.8-38.5-43.7-86.8-41.6-58.2 2.4-87.7 51.5-87.7 51.5 0 0-19.3-25.4-67.9-17.4-37.9 6.2-45.6 35.9-45.6 35.9 0 0-35.7-78.6-168.1-18.3-107.6 49-165-24.2-184.7 51.4v0.1c1.9 0.7 61.6 24.3 182.6 40 47.8 6.2 92.1 3.5 128.4-2 0.1 0 0.2 0.1 0.2 0.1 0 0.2 20.1 16.9 61.3 27.1 29.7 7.3 56.7 6.6 86.2-10.5 11.3 28.2 36.1 50.8 69.9 52.8 18.1 1.1 37.4-6.9 51.2-14.5 11.6-6.4 19.4-12.5 19.4-12.5 31.1 14.6 61.7 42.1 95.3 40.5q2-0.1 4.2-0.4c42.7-5.1 84.5-34.1 94.9-75.9 44 31.9 120 6.5 134.9-12.9-5.3 23.1 5.3 48.1 22.9 64.1 17.5 16 41.1 24.2 64.6 27.6 55.9 8 115-9.9 157-47.5 21.9 17.7 52.1 24.5 79.4 18 8.6-2 25.6-7.8 25.6-7.8 0 0 8.6 71 117.9 100.2 112.7 30.1 208.6-62.7 203-105.1 13.4 15 56.1 13.9 80.2 1.3 27.3-14.2 40.2-53.3 32.1-79.2 10.9 35 108 23.3 131.7-18.9 10.1-18.1 16.5-40.5 17.3-62.9 0.9-23.7-4.5-47.5-18.3-66.5z"/><path class="b" d="m1809.2 455.7c-61.5-12.1-107.6 21.8-117.5 69-1.6-13-19.1-18.9-31.1-13.6-12.1 5.3-19.5 17.3-25.9 28.8 5-57.2-57.2-109.4-112.7-94.5-51.6 13.8-114.3 62.8-108 149.8 41.7-33.3 111-22.7 141 21.4-43.8-33.3-115.2-20.6-144.8 25.9-5.8-39.5-62.8-59.5-92-32.3 11.2-14.7 22.8-30.4 24.6-48.8 1.8-18.3-10.6-39.4-29.1-39.7 2.4-21.6 4.7-44.1-2.1-64.8-6.8-20.7-25.2-39.3-47-38.8-36.6 0.6-51.4 46.7-56 82.9-35-3.3-69.7 26.6-71.6 61.7-23.2-24.8-10.8-72.4 21.6-82.8-16.5-17.3-48.1-10.9-62.3 8.2-14.3 19.1-14.2 45.8-7.1 68.5-35.4-29.2-94.7-22.4-122.5 14.2 35.3 3.4 69.2 19.6 94 44.8-34.9-18.5-80.5-15-112.1 8.8 0.9-30.6-42.8-51-65.8-30.8-6.8-26.8-39.9-43.2-65.4-32.5-25.6 10.7-37 45.9-22.6 69.5-30-26.9-75.6-35.1-113-20.3 27.9-0.7 55.7 15.1 69.2 39.6-33.7-18.1-73.8-23-111-15.1-16.7-14.3-41-28.3-74.9-32.5-77.2-9.4-112.7 42.3-112.7 42.3 0 0-12.8-24.6 14.6-42.8 0 0-63.6-9.7-106.5 28.4 0 0-36.1-37.3-120-2.3-32.7 13.6-209.8-11.7-209.8-11.7v0.1c1.9 0.7 61.6 24.3 182.6 40 47.8 6.2 92.1 3.5 128.4-2 0.1 0 0.2 0.1 0.2 0.1 0 0.2 20.1 16.9 61.3 27.1 29.7 7.3 56.7 6.6 86.2-10.5 11.3 28.2 36.1 50.8 69.9 52.8 18.1 1.1 37.4-6.9 51.2-14.5 11.6-6.4 19.4-12.5 19.4-12.5 31.1 14.6 61.7 42.1 95.3 40.5q2-0.1 4.2-0.4c42.7-5.1 84.5-34.1 94.9-75.9 44 31.9 120 6.5 134.9-12.9-5.3 23.1 5.3 48.1 22.9 64.1 17.5 16 41.1 24.2 64.6 27.6 55.9 8 115-9.9 157-47.5 21.9 17.7 52.1 24.5 79.4 18 8.6-2 25.6-7.8 25.6-7.8 0 0 8.6 71 117.9 100.2 112.7 30.1 208.6-62.7 203-105.1 13.4 15 56.1 13.9 80.2 1.3 27.3-14.2 40.2-53.3 32.1-79.2 10.9 35 108 23.3 131.7-18.9 10.1-18.1 16.5-40.5 17.3-62.9-11.8-45.8-40.9-74.2-81.7-82.2z"/></svg>