<svg version="1.2" xmlns="http://www.w3.org/2000/svg" viewBox="0 0 1920 1080" width="1920" height="1080"><style>.a{fill:#fff}.b{fill:#cce1f4}</style><path class="a" d="m1878.9 519c-19.6-14.1-75.8-27-135.8-26.7-50.2 0.3-147 27.3-147 27.3-35.4-31.6-161.8-59.4-245.9 0.6-22.5-62.9-112.6-88.3-164.2-46.2 18-88.7-50.1-185.6-139.2-198-89.2-12.4-180.5 62.2-186.9 152.6 3.7-53.8-65-96.7-111.2-69.5-8.2-78.3-85.1-142.8-163.1-136.6-77.8 6.2-143.5 82-139.1 160.7-25.9-46.2-89.1-66.5-136.7-44.3-5 2.4-9.6 5.1-14.1 8.2-10.8 7.6-19.9 17.3-27.2 28.4-59.7-17.7-159.3-2.5-186.6 81.5-5.5 16.7-7.1 33.2-5.9 48.2 0.5 6.4 1.5 12.5 3 18.2-15.4 0-30.5 10.1-38.2 23.8-8.9 15.9-9.2 35.5-4.8 53.2 8.2 32.7 31.9 61.1 62.6 75 30.7 13.8 67.8 12.7 97.6-2.8 23.3 40.8 68.2 66.8 114.8 72.6 46.6 5.8 94.3-7.1 135.1-30.3-23.3 65.1 41.9 116.3 68.8 128.2 85 37.5 207.2 14.1 267.3-77.6 0 0 31.3 41.7 80.7 32.4 37.1-6.9 52.5-30 58.9-46.1 28.7 29.7 74.5 58.1 142.4 51.3 67.1-6.8 104-37.6 123.7-74.3 23.6 10 46 11.3 61 6.7 68.1-20.8 64.5-74.6 56.2-87.9 5.1 2.2 13.8 4.6 24.7 3 11.8-1.6 26.3-8.1 41.4-24.9 2 0.7 4 1.4 6 2.1 36.6 12.8 70 16 99.8 13.4 57.4-5 101.8-31.3 131.3-51.3 38.5-2.1 74.2-4.3 109.7-8.9q13.4-1.7 26.9-4.1c34.9-5.8 70.3-14.6 108.8-28.5 6.4-2.3 12.9-4.6 19.4-7.2 16.4-6.5 16.6-14.6 5.8-22.2z"/><path class="b" d="m1873.1 541.2c-6.5 2.6-13 4.9-19.4 7.2-38.5 13.9-73.9 22.7-108.8 28.5q-13.5 2.4-26.9 4.1c-35.5 4.6-71.2 6.8-109.7 8.9-29.5 20-73.9 46.3-131.3 51.3-29.8 2.6-63.2-0.6-99.8-13.4-2-0.7-4-1.4-6-2.1-15.1 16.8-29.6 23.3-41.4 24.9-2.8-17-1.7-34.5 4.3-50.9q0.1-0.4 0.3-0.9c3.5-9.5 8.7-18.6 16.1-25.6 14.8-13.9 37-17.8 56.9-13.7 19.8 4.1 37.5 15.3 52.9 28.5 35.1-40.7 93.8-59.5 146-46.7 8.8 2.2 17.5 5.2 26.6 5.3 8.2 0.1 16.2-2.3 24.1-4.4 62.9-17.1 150-33.3 221.9-23.2 10.8 7.6 10.6 15.7-5.8 22.2z"/><path class="b" d="m1334.1 599.7c-10.7 0.7-19.7 3.3-26.7 8.3-29.5-14.2-64.7-16-95.4-4.7 11.4-34 49.3-56.5 84.4-50.1-33.8-19.6-87-20.1-116 5.9-9.1 8.2-21.2 28.1-21.2 28.1 0 0-33.7-47.9-82.6-55.1-29.3-4.3-76.1 9-99 45.3-25.3-83.2-136.2-110.8-204-48.7 44.5-15.6 92.7-13.1 104.4 32.9-38.5-19.9-92.2 3.8-103.7 45.8-3-21.4-33.1-33.1-49.5-19.3-8.8 7.5-11.1 19.9-8.4 31-70.8-49.9-172.3-22.9-202.9 13.3 13.1-43.5 56.2-62 105-59.9-53.5-42-131.8-54.2-188.3-16.8 22.7-30.9 8.9-80.9-25.3-98.4-34.1-17.5-80-2-99.4 31-19.5 33.1-12.7 78.6 13.2 107.1-28.2-0.9-56.6 3.5-83.3 12.7 23.8 15.4 27 52.1 27 52.1-41.4-51.7-104.2-48.6-104.2-48.6 0 0 16.1-14.5 52.9-10.8-5.6-18.6-17.1-36.2-32.3-51.2-25.6-25.2-63.2-27.2-99.8-26.2-15.4 0-30.5 10.1-38.2 23.8-8.9 15.9-9.2 35.5-4.8 53.2 8.2 32.7 31.9 61.1 62.6 75 30.7 13.8 67.8 12.7 97.6-2.8 23.3 40.8 68.2 66.8 114.8 72.6 46.6 5.8 94.3-7.1 135.1-30.3-23.3 65.1 41.9 116.3 68.8 128.2 85 37.5 207.2 14.1 267.3-77.6 0 0 31.3 41.7 80.7 32.4 37.1-6.9 52.5-30 58.9-46.1 28.7 29.7 74.5 58.1 142.4 51.3 67.1-6.8 104-37.6 123.7-74.3 23.6 10 46 11.3 61 6.7 68.1-20.8 64.5-74.6 56.2-87.9 5.1 2.2 13.8 4.6 24.7 3 11.8-1.6 26.3-8.1 41.4-24.9 2 0.7 4 1.4 6 2.1 36.6 12.8 70 16 99.8 13.4-54.4-24.2-107.5-43.7-142.9-41.5z"/></svg>