<svg version="1.2" xmlns="http://www.w3.org/2000/svg" viewBox="0 0 1920 1080" width="1920" height="1080"><style>.a{fill:#fff}.b{fill:#cce1f4}</style><path class="a" d="m1739.6 587.4c5.9-39.2 0.7-92.8-23.8-136q-2.6-4.3-5.1-8.7c-34.5-58.1-111.4-94.5-196.3-73-19.1-44-62.9-74.9-113.9-74.9-19.1 0-37.2 4.5-53.4 12.2-66.4-82.5-206.6-211.6-425.2-166.7-217.9 44.6-318.9 266.5-318.9 266.5-75.7-70.2-232.8-40-309.3 32.8-80.7 76.8-79.2 135.1-79.2 135.1-53.4-34.2-139.4 0-154 51.1-11.6 40.5 4.3 82.1 42 102.2 2.2 1.1 4.6 2.2 6.8 3.2 71.5 35.3 115.5 15.7 115.5 15.7 85.2 183.8 246.2 136 319.9 98.6 23-11.7 70.4-32 70.4-32 0 0 132.2 125.5 315.8 132.4 109.6 4.3 296.7-52.7 340.4-153.4 196.7 113.2 543.9 26.5 589.1-86.2 18-44.8 0.5-152.1-120.8-118.9z"/><path class="b" d="m1860.4 706.3c-45.2 112.7-392.4 199.4-589.1 86.2-43.7 100.7-230.8 157.7-340.4 153.4-183.6-6.9-315.8-132.4-315.8-132.4 0 0-47.4 20.3-70.4 32-73.7 37.4-234.7 85.2-319.9-98.6 0 0-44 19.6-115.5-15.7-2.2-1-4.6-2.1-6.8-3.2 8.1-1.4 16.1-3.1 23.8-5 105.4-24.9 246.3-125.3 339.8-31.3-0.7-73.2-74.6-123.5-144.1-115 31.2-44.2 93.3-63.2 144.5-44.8 52.4 18.6 88.5 74.6 84.2 129.9 60.5-29 111.9-36 177.6-24.3 65.7 11.8 108.7 52.8 135.8 114-20-108.2-77.1-169.7-186.8-163.4-3.6-61.8 3.2-103.8 40.5-153.3 37.1-49.6 103.3-79.9 163-63.6 59.8 16.4 102.7 86.5 79.8 144 9.6-14.7 44.6-23.3 65.2-9.3 16.2 11 20.4 41.9 16.6 54.7 16.5-47.8 66.4-81.8 117-79.4 50.6 2.3 97.2 40.8 109.3 89.9 8.2-91.6-78.7-179.6-170.3-172.6 127.2-70.5 298.3-24.2 317.5 120.6 49.1-161.7 266.4-129.1 299.9-67.7 24.5 43.2 31.3 103.6 23.8 136 121.3-33.2 138.8 74.1 120.8 118.9z"/></svg>