<svg version="1.2" xmlns="http://www.w3.org/2000/svg" viewBox="0 0 1920 1080" width="1920" height="1080"><style>.a{fill:#fff}.b{fill:#cce1f4}</style><path class="a" d="m1893.1 536.1c-1.3 2.2-3 4.4-5.2 6.4-94.6 89.3-482.3 63.3-482.3 63.3 0 0 12.8 79.2-55 88.5-45.2 6.1-82.5-29.3-82.5-29.3 0 0-65.2 118.4-180.6 133-90 11.4-140.5-52.3-140.5-52.3 0 0-14.6 170.1-250.4 164.4-102.8-2.5-163-40.8-198.3-83.2-32.3 24.7-73.9 39.8-123.1 21.1-47.2-17.9-71.6-50.7-84.3-80.9-70.7 11.5-152.3 4.6-216-58.3-58.1-57.2-62.3-136-35.8-203.1 18.5-47.4 52.4-88.8 93.1-112.7 112.4-65.9 235.8-40.5 264.3 11.5 12-65.7 76.4-71.3 98.9-51.9 4.3-85.6 72.7-161.4 188.1-175.7 115.3-14.5 199.8 50.3 216.9 125 21.4-43.3 79-64.5 123.3-45.5 44.2 19.2 68.4 75.6 51.6 120.8 58.2-75.3 161.1-113.2 254.2-93.5 93.2 19.6 172 95.8 194.8 188.3 148.5-94.5 400.9 8 368.8 64.1z"/><path class="b" d="m1893.1 536.1c-1.3 2.2-3 4.4-5.2 6.4-94.6 89.3-482.3 63.3-482.3 63.3 0 0 12.8 79.2-55 88.5-45.2 6.1-82.5-29.3-82.5-29.3 0 0-65.2 118.4-180.6 133-90 11.4-140.5-52.3-140.5-52.3 0 0-14.6 170.1-250.4 164.4-102.8-2.5-163-40.8-198.3-83.2-32.3 24.7-73.9 39.8-123.1 21.1-47.2-17.9-71.6-50.7-84.3-80.9-70.7 11.5-152.3 4.6-216-58.3-58.1-57.2-62.3-136-35.8-203.1 92.9 22.9 136.1 125.5 145.7 137.3-25.9-96.3 64.7-204.5 164.2-196 92.5 8 181.6 67.9 200.3 186.1-92.4 7.6-180.2 38.7-204.8 117 64.9-70.4 189.9-105 254.7-34.5-1-34.6 28.7-206 137.9-259.7 109.4-53.7 271.2 0 306.4 74.8 36.2-106.1 235.1-92.1 293.7-37.9-59.4 16.5-112.4 54.5-147.1 105.3 54-42.4 86.5-40.9 147.8-9.7 29.5-94.4 124.1-73.6 169.5-45.9 63.8-70.8 186.4-50.8 233.3-40.2 25.8 5.8 90.2 22.7 152.4 33.8z"/></svg>