<svg version="1.2" xmlns="http://www.w3.org/2000/svg" viewBox="0 0 1920 1080" width="1920" height="1080"><style>.a{fill:#fff}.b{fill:#cce1f4}</style><path class="a" d="m40.7 647.7c0.2 6.7 0.7 13.7 1.6 20.7 2.9 23.2 39.5 72 124 104.7 101.6 39.2 227.4 55.6 314.1-10.1-6.5 56.6 56.8 93.2 109.7 113.9 56.4 22 113.8 44.2 174.2 46.8 60.3 2.5 125.1-18 160.3-67 49.7 86.5 176.4 117.1 260 62.7 51.2 73.4 153.2 106.8 237.9 77.8 84.7-28.9 144.9-117.8 140.4-207.2 47.1 25.7 114.7-18.3 110.2-71.9 46.1 41.9 125.7 32.2 167.9-13.7 42.1-45.8 48.2-117.7 24.2-175.2-16.1-38.6-44.1-71.1-77.6-96.6 1.2-14.2 0.1-28.6-3.4-42.4-3.4-13.7-9.1-26.8-17.1-38.4-31.3-45.6-95.2-65.2-146.8-45.5 20.7-64.5-30.3-141.5-97.7-147.7-65.3-5.9-127.3 56.1-123.4 121-3.2-29.7-27.5-52.4-52-69.9-57.5-41.1-106.1-3.7-117.3 0.8-16.4-79.8-91.8-140.9-202.2-137.7-110.4 3.1-180.5 76.3-185.6 148.9-26.4-37.5-83.6-49.1-122.5-24.7-38.7 24.4-53.3 80.9-30.8 120.9-65.7-62.3-167.8-82.9-252.5-50.9-84.7 31.9-147.7 115-155.7 205.2-75.8-23.3-244.5 22.8-239.9 175.5z"/><path class="a" d="m1279.3 647.8c-27.7-2.4-55.8 6.2-79.5 20.9-4.2 2.6-8.8 5.6-13.8 5-5.7-0.6-9.7-5.6-13.7-9.8-21.5-22.9-56-29.9-87.1-25.4-31.2 4.4-59.9 18.6-88.1 32.6 4.3-31.2 9.9-65 32.6-86.9 19.7-19.1 49.9-25.2 76.4-18.6 26.6 6.6 49.5 24.8 64.9 47.4 4.6 6.7 9.8 14.6 17.9 15.2 5.1 0.4 9.8-2.3 14.4-4.6 41.1-21.5 92.4-22.1 134-1.8 41.7 20.4 72.6 61.4 80.9 107-4.8-26.6-114.6-78.9-138.9-81z"/><path class="b" d="m1865.2 529.2c-16.1-38.6-44.1-71.1-77.6-96.6-47.1-32-89.2-27.9-124.9-7.7 106.7 43 89.3 159.6 89.3 159.6-29.6-86.6-76.1-112.3-116.9-125.3-44.4-14.1-90.6-2.4-117.1 26.5-19.8 21.5-22.2 55.3-13.7 83.5-74.2-79.1-152.6-83.3-186-60.3 74.3 16.2 91.8 85.4 91.8 85.4-192.2-93.9-300.2 2.5-300.2 2.5 0 0 7.2-95.2 137.8-99.2-7.2-67.6-53.9-140.5-133.4-145.4-98.2-6-179.2 63.9-175.3 168.8-35.1-7.8-71.6 30.4-62.2 65.1-24.3-19.2-50.1-39.1-80.8-44.1-30.6-4.9-66.9 11-73.3 41.4-42.9 4.3-78.1 47-73.9 89.9-57.9-54.9-152.7-66.2-222-26.6 33.4-100.2 162.1-155.7 258-111.2-2.2-70.6-72.1-131.5-142.3-124.1-70.2 7.5-125.8 81.7-113.1 151.2-50.4-15.8-107.8 37.9-95.3 89.2-19.9-65.7-95.5-82-140-70 62.6 16.5 87.9 92.7 79.9 145.9-20.3-48.3-83-148-233.3-80 0.2 6.7 0.7 13.7 1.6 20.7 2.9 23.2 39.5 72 124 104.7 101.6 39.2 227.4 55.6 314.1-10.1-6.5 56.6 56.8 93.2 109.7 113.9 56.4 22 113.8 44.2 174.2 46.8 60.3 2.5 125.1-18 160.3-67 49.7 86.5 176.4 117.1 260 62.7 51.2 73.4 153.2 106.8 237.9 77.8 84.7-28.9 144.9-117.8 140.4-207.2 47.1 25.7 114.7-18.3 110.2-71.9 46.1 41.9 125.7 32.2 167.9-13.7 42.1-45.8 48.2-117.7 24.2-175.2z"/></svg>